<svg id="Layer_1" enable-background="new 0 0 512 512" height="512" viewBox="0 0 512 512" width="512" xmlns="http://www.w3.org/2000/svg"><g><path d="m343.382 138.6c5.617 5.617 90.369 90.353 90.369 90.353 13.325 13.325 13.325 34.93 0 48.256s-34.93 13.326-48.256 0c0 0-73.811-73.794-97.41-97.4-20.566-20.532-32.085-48.377-32.085-77.408 32.768 0 64.256 13.022 87.382 36.199z" fill="#6e0a32"/><circle cx="256" cy="51.201" fill="#ffdcc8" r="51.201"/><path d="m256 102.401c-28.245 0-51.201 22.938-51.201 51.201v153.602c0 8.284 6.716 15 15 15h72.401c8.284 0 15-6.716 15-15v-153.602c0-28.263-22.954-51.201-51.2-51.201z" fill="#e6325a"/><path d="m168.617 138.6c-5.617 5.617-90.369 90.353-90.369 90.353-13.325 13.325-13.325 34.93 0 48.256s34.93 13.326 48.256 0c0 0 73.811-73.794 97.41-97.4 20.566-20.532 32.086-48.377 32.086-77.408-32.768 0-64.256 13.022-87.383 36.199z" fill="#ff5078"/><path d="m256 0c28.246 0 51.2 22.938 51.2 51.201 0 28.254-22.954 51.201-51.201 51.201v-102.402z" fill="#ffbeb9"/><path d="m256 102.401v219.803h36.2c8.284 0 15-6.716 15-15v-153.602c0-28.263-22.954-51.201-51.2-51.201z" fill="#aa1e46"/><path d="m433.752 453.75-112.386-112.42c-9.13-9.046-14.166-21.325-14.166-34.125l-47.651 47.651c-5.858 5.858-5.858 15.356 0 21.214l125.946 125.938c13.325 13.326 34.93 13.326 48.256 0 13.326-13.328 13.326-34.932.001-48.258z" fill="#0096aa"/><path d="m204.799 307.204c0 22.127-3.584 44.826-10.667 65.81l-6.486 19.525-87.382 55.911c-15.875 10.154-20.513 31.255-10.359 47.131 10.154 15.875 31.092 21.077 46.968 10.923l98.16-61.081c1.783-1.11 3.313-2.581 4.492-4.32l48.475-71.519c12.545-18.407 19.2-40.141 19.2-62.379h-102.401z" fill="#80dacb"/><path d="m256 416.796 32-47.212c12.545-18.407 19.2-40.141 19.2-62.38h-51.2z" fill="#28b4b4"/></g></svg>